Mirza-Bold - UFO -Without Production Namas.ufo
<glyph name="pagenumber-ar" format="1">
  <advance width="600"/>
  <unicode hex="0603"/>
  <outline>
    <contour>
      <point x="-105" y="-104"/>
      <point x="-61" y="-160"/>
      <point x="-7" y="-201" type="curve"/>
      <point x="7" y="-199"/>
      <point x="553" y="-198"/>
      <point x="595" y="-198" type="curve" smooth="yes"/>
      <point x="640" y="-198"/>
      <point x="673" y="-182"/>
      <point x="690" y="-153" type="curve"/>
      <point x="695" y="-158"/>
      <point x="702" y="-163"/>
      <point x="712" y="-167" type="curve"/>
      <point x="701" y="-215" type="line"/>
      <point x="760" y="-215" type="line"/>
      <point x="767" y="-190" type="line"/>
      <point x="788" y="-195"/>
      <point x="814" y="-194"/>
      <point x="846" y="-194" type="curve" smooth="yes"/>
      <point x="912" y="-194"/>
      <point x="987" y="-167"/>
      <point x="1046" y="-122" type="curve" smooth="yes"/>
      <point x="1076" y="-99"/>
      <point x="1101" y="-72"/>
      <point x="1118" y="-44" type="curve" smooth="yes"/>
      <point x="1137" y="-12"/>
      <point x="1147" y="20"/>
      <point x="1147" y="53" type="curve" smooth="yes"/>
      <point x="1147" y="82"/>
      <point x="1131" y="110"/>
      <point x="1102" y="133" type="curve" smooth="yes"/>
      <point x="1077" y="152"/>
      <point x="1047" y="164"/>
      <point x="1023" y="164" type="curve" smooth="yes"/>
      <point x="958" y="164"/>
      <point x="889" y="112"/>
      <point x="836" y="54" type="curve" smooth="yes"/>
      <point x="791" y="4"/>
      <point x="759" y="-43"/>
      <point x="749" y="-59" type="curve"/>
      <point x="737" y="-58"/>
      <point x="728" y="-54"/>
      <point x="722" y="-48" type="curve"/>
      <point x="707" y="-30"/>
      <point x="709" y="3"/>
      <point x="717" y="46" type="curve"/>
      <point x="666" y="27" type="line"/>
      <point x="662" y="3"/>
      <point x="653" y="-21"/>
      <point x="644" y="-34" type="curve"/>
      <point x="632" y="-50"/>
      <point x="618" y="-59"/>
      <point x="596" y="-59" type="curve" smooth="yes"/>
      <point x="-18" y="-56"/>
      <point x="-70" y="-54"/>
      <point x="-129" y="-44" type="curve"/>
    </contour>
    <contour>
      <point x="833" y="-44"/>
      <point x="848" y="-24"/>
      <point x="867" y="-5" type="curve" smooth="yes"/>
      <point x="895" y="24"/>
      <point x="928" y="51"/>
      <point x="976" y="51" type="curve" smooth="yes"/>
      <point x="1001" y="51"/>
      <point x="1018" y="42"/>
      <point x="1030" y="31" type="curve"/>
      <point x="1043" y="18"/>
      <point x="1050" y="1"/>
      <point x="1053" y="-7" type="curve"/>
      <point x="1045" y="-15"/>
      <point x="1031" y="-28"/>
      <point x="1007" y="-39" type="curve" smooth="yes"/>
      <point x="978" y="-52"/>
      <point x="946" y="-59"/>
      <point x="911" y="-59" type="curve" smooth="yes"/>
      <point x="822" y="-59" type="line"/>
    </contour>
  </outline>
</glyph>
<glyph name="rehHahabove-ar" format="1">
  <advance width="0"/>
  <unicode hex="0612"/>
  <outline>
    <contour>
      <point x="98" y="862"/>
      <point x="94" y="866"/>
      <point x="94" y="866" type="curve"/>
      <point x="85" y="855"/>
      <point x="77" y="843"/>
      <point x="69" y="830" type="curve"/>
      <point x="69" y="830"/>
      <point x="76" y="826"/>
      <point x="84" y="815" type="curve" smooth="yes"/>
      <point x="90" y="808"/>
      <point x="96" y="799"/>
      <point x="96" y="788" type="curve" smooth="yes"/>
      <point x="96" y="767"/>
      <point x="78" y="755"/>
      <point x="53" y="741" type="curve" smooth="yes"/>
      <point x="45" y="737"/>
      <point x="31" y="729"/>
      <point x="17" y="722" type="curve" smooth="yes"/>
      <point x="4" y="715"/>
      <point x="3" y="714"/>
      <point x="3" y="714" type="curve"/>
      <point x="13" y="700" type="line"/>
      <point x="21" y="703"/>
      <point x="32" y="704"/>
      <point x="39" y="704" type="curve" smooth="yes"/>
      <point x="46" y="704"/>
      <point x="49" y="703"/>
      <point x="57" y="703" type="curve" smooth="yes"/>
      <point x="69" y="703"/>
      <point x="79" y="705"/>
      <point x="87" y="711" type="curve" smooth="yes"/>
      <point x="94" y="716"/>
      <point x="101" y="724"/>
      <point x="106" y="733" type="curve" smooth="yes"/>
      <point x="118" y="753"/>
      <point x="122" y="779"/>
      <point x="122" y="797" type="curve" smooth="yes"/>
      <point x="122" y="824"/>
      <point x="113" y="842"/>
      <point x="104" y="854" type="curve" smooth="yes"/>
    </contour>
    <contour>
      <point x="31" y="801"/>
      <point x="35" y="814"/>
      <point x="38" y="827" type="curve"/>
      <point x="33" y="827"/>
      <point x="26" y="827"/>
      <point x="19" y="827" type="curve" smooth="yes"/>
      <point x="-18" y="827"/>
      <point x="-37" y="833"/>
      <point x="-52" y="838" type="curve" smooth="yes"/>
      <point x="-66" y="842"/>
      <point x="-74" y="843"/>
      <point x="-79" y="843" type="curve" smooth="yes"/>
      <point x="-94" y="843"/>
      <point x="-104" y="836"/>
      <point x="-114" y="817" type="curve" smooth="yes"/>
      <point x="-119" y="809"/>
      <point x="-123" y="800"/>
      <point x="-123" y="800" type="curve"/>
      <point x="-111" y="790" type="line"/>
      <point x="-104" y="802"/>
      <point x="-98" y="806"/>
      <point x="-83" y="806" type="curve" smooth="yes"/>
      <point x="-75" y="806"/>
      <point x="-69" y="805"/>
      <point x="-61" y="803" type="curve"/>
      <point x="-70" y="798"/>
      <point x="-80" y="792"/>
      <point x="-88" y="785" type="curve" smooth="yes"/>
      <point x="-99" y="776"/>
      <point x="-108" y="764"/>
      <point x="-115" y="751" type="curve" smooth="yes"/>
      <point x="-120" y="742"/>
      <point x="-124" y="731"/>
      <point x="-126" y="719" type="curve"/>
      <point x="-112" y="719" type="line"/>
      <point x="-100" y="772"/>
      <point x="-30" y="796"/>
      <point x="25" y="788" type="curve"/>
    </contour>
    <contour>
      <point x="-2" y="866" type="move" name="top"/>
    </contour>
    <contour>
      <point x="-2" y="680" type="move" name="_top"/>
    </contour>
  </outline>
</glyph>
<glyph name="alefMaksura-ar" format="1">
  <advance width="693"/>
  <unicode hex="0649"/>
  <outline>
    <contour>
      <point x="466" y="168"/>
      <point x="423" y="176"/>
      <point x="422" y="189" type="curve"/>
      <point x="423" y="195"/>
      <point x="431" y="217"/>
      <point x="451" y="239" type="curve" smooth="yes"/>
      <point x="479" y="268"/>
      <point x="519" y="284"/>
      <point x="568" y="284" type="curve"/>
      <point x="573" y="278"/>
      <point x="600" y="228"/>
      <point x="600" y="228" type="curve"/>
      <point x="640" y="248" type="line"/>
      <point x="640" y="248"/>
      <point x="645" y="338"/>
      <point x="605" y="382" type="curve" smooth="yes"/>
      <point x="588" y="400"/>
      <point x="565" y="409"/>
      <point x="539" y="409" type="curve" smooth="yes"/>
      <point x="481" y="409"/>
      <point x="429" y="367"/>
      <point x="388" y="287" type="curve" smooth="yes"/>
      <point x="356" y="223"/>
      <point x="341" y="155"/>
      <point x="341" y="129" type="curve" smooth="yes"/>
      <point x="340" y="109"/>
      <point x="348" y="84"/>
      <point x="380" y="65" type="curve" smooth="yes"/>
      <point x="398" y="55"/>
      <point x="423" y="47"/>
      <point x="459" y="41" type="curve" smooth="yes"/>
      <point x="500" y="35"/>
      <point x="526" y="30"/>
      <point x="542" y="27" type="curve"/>
      <point x="528" y="15"/>
      <point x="504" y="1"/>
      <point x="471" y="-13" type="curve" smooth="yes"/>
      <point x="441" y="-25"/>
      <point x="385" y="-44"/>
      <point x="303" y="-44" type="curve" smooth="yes"/>
      <point x="234" y="-44"/>
      <point x="186" y="-29"/>
      <point x="158" y="4" type="curve" smooth="yes"/>
      <point x="115" y="55"/>
      <point x="142" y="151"/>
      <point x="142" y="151" type="curve"/>
      <point x="99" y="166" type="line"/>
      <point x="99" y="166"/>
      <point x="65" y="75"/>
      <point x="61" y="19" type="curve" smooth="yes"/>
      <point x="58" y="-16"/>
      <point x="62" y="-49"/>
      <point x="75" y="-78" type="curve" smooth="yes"/>
      <point x="90" y="-116"/>
      <point x="117" y="-145"/>
      <point x="154" y="-165" type="curve" smooth="yes"/>
      <point x="191" y="-186"/>
      <point x="239" y="-197"/>
      <point x="294" y="-197" type="curve" smooth="yes"/>
      <point x="356" y="-197"/>
      <point x="435" y="-180"/>
      <point x="491" y="-151" type="curve" smooth="yes"/>
      <point x="575" y="-107"/>
      <point x="643" y="-27"/>
      <point x="643" y="78" type="curve" smooth="yes"/>
      <point x="643" y="108"/>
      <point x="630" y="153"/>
      <point x="498" y="165" type="curve" smooth="yes"/>
    </contour>
    <contour>
      <point x="214" y="163" type="move" name="top"/>
    </contour>
    <contour>
      <point x="326" y="-230" type="move" name="bottom"/>
    </contour>
  </outline>
</glyph>
<glyph name="shadda-ar" format="1">
  <advance width="0"/>
  <unicode hex="0651"/>
  <outline>
    <contour>
      <point x="85" y="825"/>
      <point x="82" y="823"/>
      <point x="79" y="822" type="curve"/>
      <point x="77" y="800"/>
      <point x="66" y="779"/>
      <point x="40" y="777" type="curve" smooth="yes"/>
      <point x="22" y="774"/>
      <point x="9" y="787"/>
      <point x="6" y="815" type="curve"/>
      <point x="2" y="813"/>
      <point x="-2" y="813"/>
      <point x="-6" y="812" type="curve"/>
      <point x="-6" y="770"/>
      <point x="-33" y="753"/>
      <point x="-51" y="753" type="curve" smooth="yes"/>
      <point x="-73" y="753"/>
      <point x="-76" y="768"/>
      <point x="-78" y="790" type="curve"/>
      <point x="-82" y="788"/>
      <point x="-85" y="786"/>
      <point x="-91" y="786" type="curve"/>
      <point x="-93" y="767"/>
      <point x="-92" y="751"/>
      <point x="-89" y="737" type="curve" smooth="yes"/>
      <point x="-82" y="713"/>
      <point x="-67" y="700"/>
      <point x="-46" y="700" type="curve" smooth="yes"/>
      <point x="-33" y="700"/>
      <point x="-17" y="706"/>
      <point x="-8" y="723" type="curve" smooth="yes"/>
      <point x="-2" y="732"/>
      <point x="1" y="743"/>
      <point x="1" y="757" type="curve"/>
      <point x="8" y="737"/>
      <point x="20" y="726"/>
      <point x="38" y="726" type="curve" smooth="yes"/>
      <point x="49" y="726"/>
      <point x="66" y="732"/>
      <point x="77" y="751" type="curve" smooth="yes"/>
      <point x="86" y="766"/>
      <point x="93" y="790"/>
      <point x="89" y="826" type="curve"/>
    </contour>
    <contour>
      <point x="-1" y="826" type="move" name="top"/>
    </contour>
    <contour>
      <point x="-1" y="669" type="move" name="_top"/>
    </contour>
  </outline>
</glyph>
<glyph name="fathatwodots-ar" format="1">
  <advance width="0"/>
  <unicode hex="065E"/>
  <outline>
    <contour>
      <point x="-69" y="847"/>
      <point x="-57" y="833"/>
      <point x="-48" y="822" type="curve"/>
      <point x="-37" y="831"/>
      <point x="-20" y="850"/>
      <point x="-16" y="855" type="curve"/>
      <point x="-22" y="868"/>
      <point x="-36" y="882"/>
      <point x="-51" y="891" type="curve"/>
      <point x="-56" y="884"/>
      <point x="-75" y="865"/>
      <point x="-84" y="857" type="curve"/>
    </contour>
    <contour>
      <point x="-84" y="736"/>
      <point x="-83" y="711"/>
      <point x="-82" y="700" type="curve"/>
      <point x="-42" y="730"/>
      <point x="51" y="804"/>
      <point x="88" y="827" type="curve"/>
      <point x="88" y="853"/>
      <point x="88" y="868"/>
      <point x="87" y="888" type="curve"/>
      <point x="50" y="868"/>
      <point x="-49" y="796"/>
      <point x="-83" y="763" type="curve"/>
    </contour>
    <contour>
      <point x="33" y="728"/>
      <point x="45" y="714"/>
      <point x="54" y="703" type="curve"/>
      <point x="65" y="712"/>
      <point x="82" y="731"/>
      <point x="86" y="736" type="curve"/>
      <point x="80" y="749"/>
      <point x="66" y="763"/>
      <point x="51" y="772" type="curve"/>
      <point x="46" y="765"/>
      <point x="27" y="746"/>
      <point x="18" y="738" type="curve"/>
    </contour>
    <contour>
      <point x="2" y="911" type="move" name="_bottom"/>
    </contour>
    <contour>
      <point x="2" y="700" type="move" name="bottom"/>
    </contour>
  </outline>
</glyph>
<glyph name="seven-ar" format="1">
  <advance width="483"/>
  <unicode hex="0667"/>
  <outline>
    <contour>
      <point x="433" y="496"/>
      <point x="420" y="531"/>
      <point x="396" y="579" type="curve"/>
      <point x="369" y="536"/>
      <point x="344" y="493"/>
      <point x="322" y="448" type="curve" smooth="yes"/>
      <point x="307" y="419"/>
      <point x="293" y="391"/>
      <point x="281" y="363" type="curve" smooth="yes"/>
      <point x="266" y="329"/>
      <point x="254" y="296"/>
      <point x="246" y="266" type="curve"/>
      <point x="238" y="297"/>
      <point x="226" y="331"/>
      <point x="211" y="366" type="curve" smooth="yes"/>
      <point x="200" y="392"/>
      <point x="188" y="419"/>
      <point x="174" y="446" type="curve" smooth="yes"/>
      <point x="151" y="490"/>
      <point x="125" y="534"/>
      <point x="96" y="580" type="curve"/>
      <point x="75" y="537"/>
      <point x="62" y="502"/>
      <point x="50" y="453" type="curve"/>
      <point x="115" y="358"/>
      <point x="165" y="259"/>
      <point x="191" y="164" type="curve" smooth="yes"/>
      <point x="207" y="107"/>
      <point x="212" y="68"/>
      <point x="216" y="0" type="curve"/>
      <point x="275" y="0" type="line"/>
      <point x="280" y="65"/>
      <point x="285" y="114"/>
      <point x="302" y="168" type="curve" smooth="yes"/>
      <point x="331" y="266"/>
      <point x="377" y="359"/>
      <point x="443" y="453" type="curve"/>
    </contour>
  </outline>
</glyph>
<glyph name="nine-ar" format="1">
  <advance width="394"/>
  <unicode hex="0669"/>
  <outline>
    <contour>
      <point x="286" y="175"/>
      <point x="281" y="232"/>
      <point x="281" y="343" type="curve" smooth="yes"/>
      <point x="281" y="441"/>
      <point x="264" y="513"/>
      <point x="229" y="551" type="curve" smooth="yes"/>
      <point x="211" y="570"/>
      <point x="189" y="580"/>
      <point x="165" y="580" type="curve" smooth="yes"/>
      <point x="125" y="580"/>
      <point x="97" y="559"/>
      <point x="76" y="520" type="curve" smooth="yes"/>
      <point x="60" y="491"/>
      <point x="50" y="452"/>
      <point x="50" y="423" type="curve" smooth="yes"/>
      <point x="50" y="381"/>
      <point x="59" y="351"/>
      <point x="79" y="333" type="curve" smooth="yes"/>
      <point x="96" y="317"/>
      <point x="115" y="309"/>
      <point x="154" y="309" type="curve" smooth="yes"/>
      <point x="166" y="309"/>
      <point x="188" y="312"/>
      <point x="196" y="321" type="curve"/>
      <point x="197" y="229" type="line"/>
      <point x="197" y="173"/>
      <point x="208" y="126"/>
      <point x="230" y="87" type="curve" smooth="yes"/>
      <point x="253" y="48"/>
      <point x="288" y="18"/>
      <point x="335" y="0" type="curve"/>
      <point x="348" y="50"/>
      <point x="354" y="86"/>
      <point x="354" y="135" type="curve"/>
    </contour>
    <contour>
      <point x="195" y="432"/>
      <point x="182" y="416"/>
      <point x="151" y="416" type="curve" smooth="yes"/>
      <point x="111" y="416"/>
      <point x="100" y="442"/>
      <point x="100" y="456" type="curve" smooth="yes"/>
      <point x="100" y="470"/>
      <point x="108" y="493"/>
      <point x="146" y="493" type="curve" smooth="yes"/>
      <point x="165" y="493"/>
      <point x="182" y="482"/>
      <point x="192" y="463" type="curve" smooth="yes"/>
      <point x="197" y="453"/>
      <point x="199" y="443"/>
      <point x="202" y="437" type="curve"/>
    </contour>
  </outline>
</glyph>
<glyph name="asteriskArt-ar" format="1">
  <advance width="664"/>
  <unicode hex="06DE"/>
  <outline>
    <contour>
      <point x="590" y="306"/>
      <point x="578" y="317"/>
      <point x="532" y="323" type="curve"/>
      <point x="525" y="361"/>
      <point x="507" y="394"/>
      <point x="482" y="420" type="curve" smooth="yes"/>
      <point x="456" y="446"/>
      <point x="423" y="466"/>
      <point x="385" y="475" type="curve"/>
      <point x="379" y="520"/>
      <point x="367" y="536"/>
      <point x="337" y="561" type="curve" smooth="yes"/>
      <point x="309" y="537"/>
      <point x="296" y="524"/>
      <point x="289" y="475" type="curve"/>
      <point x="257" y="467"/>
      <point x="228" y="452"/>
      <point x="204" y="431" type="curve" smooth="yes"/>
      <point x="173" y="404"/>
      <point x="151" y="366"/>
      <point x="142" y="323" type="curve"/>
      <point x="99" y="317"/>
      <point x="86" y="307"/>
      <point x="60" y="281" type="curve" smooth="yes"/>
      <point x="82" y="258"/>
      <point x="97" y="245"/>
      <point x="142" y="238" type="curve"/>
      <point x="148" y="206"/>
      <point x="162" y="177"/>
      <point x="182" y="153" type="curve" smooth="yes"/>
      <point x="209" y="120"/>
      <point x="245" y="97"/>
      <point x="289" y="86" type="curve"/>
      <point x="295" y="41"/>
      <point x="306" y="27"/>
      <point x="337" y="0" type="curve" smooth="yes"/>
      <point x="364" y="23"/>
      <point x="378" y="39"/>
      <point x="385" y="86" type="curve"/>
      <point x="424" y="96"/>
      <point x="458" y="116"/>
      <point x="483" y="143" type="curve" smooth="yes"/>
      <point x="508" y="169"/>
      <point x="525" y="201"/>
      <point x="532" y="238" type="curve"/>
      <point x="574" y="243"/>
      <point x="588" y="254"/>
      <point x="614" y="281" type="curve" smooth="yes"/>
    </contour>
    <contour>
      <point x="445" y="255"/>
      <point x="475" y="213"/>
      <point x="475" y="164" type="curve"/>
      <point x="406" y="164"/>
      <point x="374" y="185"/>
      <point x="337" y="242" type="curve"/>
      <point x="305" y="189"/>
      <point x="265" y="161"/>
      <point x="200" y="164" type="curve" smooth="yes"/>
      <point x="208" y="220"/>
      <point x="222" y="253"/>
      <point x="282" y="281" type="curve"/>
      <point x="229" y="307"/>
      <point x="203" y="341"/>
      <point x="200" y="397" type="curve" smooth="yes"/>
      <point x="265" y="399"/>
      <point x="302" y="377"/>
      <point x="337" y="319" type="curve"/>
      <point x="371" y="372"/>
      <point x="406" y="399"/>
      <point x="475" y="397" type="curve" smooth="yes"/>
      <point x="469" y="344"/>
      <point x="453" y="312"/>
      <point x="392" y="281" type="curve"/>
    </contour>
  </outline>
</glyph>
<glyph name="sajdah-ar" format="1">
  <advance width="642"/>
  <unicode hex="06E9"/>
  <outline>
    <contour>
      <point x="561" y="371"/>
      <point x="523" y="408"/>
      <point x="492" y="439" type="curve"/>
      <point x="321" y="608" type="line"/>
      <point x="150" y="439" type="line"/>
      <point x="119" y="408"/>
      <point x="80" y="371"/>
      <point x="80" y="307" type="curve" smooth="yes"/>
      <point x="80" y="245"/>
      <point x="111" y="208"/>
      <point x="123" y="197" type="curve"/>
      <point x="123" y="81" type="line"/>
      <point x="50" y="1" type="line"/>
      <point x="592" y="1" type="line"/>
      <point x="518" y="83" type="line"/>
      <point x="518" y="197" type="line"/>
      <point x="530" y="208"/>
      <point x="561" y="245"/>
      <point x="561" y="307" type="curve" smooth="yes"/>
    </contour>
    <contour>
      <point x="478" y="258"/>
      <point x="436" y="240"/>
      <point x="436" y="240" type="curve"/>
      <point x="436" y="83" type="line"/>
      <point x="205" y="83" type="line"/>
      <point x="205" y="240" type="line"/>
      <point x="205" y="240"/>
      <point x="164" y="256"/>
      <point x="164" y="305" type="curve" smooth="yes"/>
      <point x="164" y="324"/>
      <point x="167" y="338"/>
      <point x="187" y="358" type="curve" smooth="yes"/>
      <point x="321" y="491" type="line"/>
      <point x="454" y="358" type="line" smooth="yes"/>
      <point x="474" y="338"/>
      <point x="478" y="324"/>
      <point x="478" y="305" type="curve" smooth="yes"/>
    </contour>
    <contour>
      <point x="455" y="324"/>
      <point x="443" y="337"/>
      <point x="438" y="342" type="curve" smooth="yes"/>
      <point x="321" y="458" type="line"/>
      <point x="204" y="342" type="line" smooth="yes"/>
      <point x="199" y="337"/>
      <point x="187" y="324"/>
      <point x="187" y="303" type="curve" smooth="yes"/>
      <point x="187" y="281"/>
      <point x="200" y="271"/>
      <point x="206" y="266" type="curve"/>
      <point x="228" y="250" type="line"/>
      <point x="228" y="108" type="line"/>
      <point x="413" y="108" type="line"/>
      <point x="413" y="250" type="line"/>
      <point x="436" y="266" type="line"/>
      <point x="442" y="271"/>
      <point x="455" y="281"/>
      <point x="455" y="303" type="curve" smooth="yes"/>
    </contour>
    <contour>
      <point x="413" y="302"/>
      <point x="407" y="298"/>
      <point x="407" y="298" type="curve"/>
      <point x="371" y="271" type="line"/>
      <point x="371" y="150" type="line"/>
      <point x="270" y="150" type="line"/>
      <point x="270" y="271" type="line"/>
      <point x="236" y="297" type="line"/>
      <point x="236" y="297"/>
      <point x="228" y="301"/>
      <point x="228" y="304" type="curve" smooth="yes"/>
      <point x="228" y="307"/>
      <point x="231" y="309"/>
      <point x="234" y="312" type="curve" smooth="yes"/>
      <point x="321" y="399" type="line"/>
      <point x="408" y="312" type="line" smooth="yes"/>
      <point x="411" y="309"/>
      <point x="413" y="307"/>
      <point x="413" y="305" type="curve" smooth="yes"/>
    </contour>
  </outline>
</glyph>
<glyph name="rhombusStopabove-ar" format="1">
  <advance width="0"/>
  <unicode hex="06EB"/>
  <outline>
    <contour>
      <point x="84" y="782" type="line"/>
      <point x="2" y="863" type="line"/>
      <point x="-80" y="782" type="line"/>
      <point x="2" y="700" type="line"/>
    </contour>
    <contour>
      <point x="2" y="820" type="line"/>
      <point x="40" y="782" type="line"/>
      <point x="2" y="744" type="line"/>
      <point x="-36" y="782" type="line"/>
    </contour>
    <contour>
      <point x="2" y="863" type="move" name="top"/>
    </contour>
    <contour>
      <point x="2" y="680" type="move" name="_top"/>
    </contour>
  </outline>
</glyph>
<glyph name="dotStopabove-ar" format="1">
  <advance width="0"/>
  <unicode hex="06EC"/>
  <outline>
    <contour>
      <point x="30" y="700"/>
      <point x="51" y="721"/>
      <point x="51" y="748" type="curve" smooth="yes"/>
      <point x="51" y="775"/>
      <point x="30" y="796"/>
      <point x="3" y="796" type="curve" smooth="yes"/>
      <point x="-24" y="796"/>
      <point x="-45" y="775"/>
      <point x="-45" y="748" type="curve" smooth="yes"/>
      <point x="-45" y="721"/>
      <point x="-24" y="700"/>
      <point x="3" y="700" type="curve" smooth="yes"/>
    </contour>
    <contour>
      <point x="3" y="796" type="move" name="top"/>
    </contour>
    <contour>
      <point x="3" y="680" type="move" name="_top"/>
    </contour>
  </outline>
</glyph>
<glyph name="dalVinvertedbelow-ar" format="1">
  <advance width="453"/>
  <unicode hex="075A"/>
  <outline>
    <component base="dal-ar"/>
    <component base="circumflex.below" xOffset="202" yOffset="137"/>
    <contour>
      <point x="217" y="-280" type="move" name="bottom"/>
    </contour>
  </outline>
</glyph>
<glyph name="behVbelow-ar" format="1">
  <advance width="859"/>
  <unicode hex="08A0"/>
  <outline>
    <component base="dotlessbeh-ar"/>
    <component base="vbelow-ar" xOffset="408" yOffset="142"/>
    <contour>
      <point x="408" y="-286" type="move" name="bottom"/>
    </contour>
  </outline>
</glyph>
<glyph name="fathaCurly-ar" format="1">
  <advance width="0"/>
  <unicode hex="08E4"/>
  <outline>
    <contour>
      <point x="9" y="869" type="line"/>
      <point x="16" y="863"/>
      <point x="21" y="857"/>
      <point x="22" y="853" type="curve" smooth="yes"/>
      <point x="22" y="849"/>
      <point x="25" y="836"/>
      <point x="-10" y="817" type="curve" smooth="yes"/>
      <point x="-22" y="810"/>
      <point x="-36" y="802"/>
      <point x="-45" y="790" type="curve" smooth="yes"/>
      <point x="-54" y="778"/>
      <point x="-58" y="764"/>
      <point x="-57" y="750" type="curve" smooth="yes"/>
      <point x="-54" y="731"/>
      <point x="-48" y="721"/>
      <point x="-17" y="700" type="curve"/>
      <point x="-9" y="721" type="line"/>
      <point x="-14" y="725"/>
      <point x="-21" y="731"/>
      <point x="-22" y="738" type="curve" smooth="yes"/>
      <point x="-24" y="748"/>
      <point x="-12" y="760"/>
      <point x="4" y="771" type="curve" smooth="yes"/>
      <point x="16" y="778"/>
      <point x="36" y="788"/>
      <point x="45" y="799" type="curve" smooth="yes"/>
      <point x="52" y="810"/>
      <point x="56" y="822"/>
      <point x="56" y="835" type="curve" smooth="yes"/>
      <point x="56" y="857"/>
      <point x="50" y="865"/>
      <point x="18" y="890" type="curve"/>
    </contour>
    <contour>
      <point x="-1" y="890" type="move" name="top"/>
    </contour>
    <contour>
      <point x="-1" y="680" type="move" name="_top"/>
    </contour>
  </outline>
</glyph>
<glyph name="kasraCurly-ar" format="1">
  <advance width="0"/>
  <unicode hex="08E6"/>
  <outline>
    <contour>
      <point x="12" y="-224" type="line"/>
      <point x="18" y="-230"/>
      <point x="23" y="-236"/>
      <point x="24" y="-239" type="curve" smooth="yes"/>
      <point x="24" y="-244"/>
      <point x="27" y="-257"/>
      <point x="-8" y="-276" type="curve" smooth="yes"/>
      <point x="-20" y="-283"/>
      <point x="-34" y="-291"/>
      <point x="-43" y="-303" type="curve" smooth="yes"/>
      <point x="-52" y="-315"/>
      <point x="-56" y="-329"/>
      <point x="-55" y="-343" type="curve" smooth="yes"/>
      <point x="-52" y="-362"/>
      <point x="-46" y="-372"/>
      <point x="-15" y="-392" type="curve"/>
      <point x="-7" y="-372" type="line"/>
      <point x="-12" y="-367"/>
      <point x="-19" y="-361"/>
      <point x="-20" y="-355" type="curve" smooth="yes"/>
      <point x="-22" y="-345"/>
      <point x="-10" y="-332"/>
      <point x="6" y="-322" type="curve" smooth="yes"/>
      <point x="18" y="-315"/>
      <point x="38" y="-305"/>
      <point x="47" y="-293" type="curve" smooth="yes"/>
      <point x="54" y="-283"/>
      <point x="58" y="-271"/>
      <point x="58" y="-258" type="curve" smooth="yes"/>
      <point x="58" y="-236"/>
      <point x="52" y="-227"/>
      <point x="20" y="-203" type="curve"/>
    </contour>
  </outline>
</glyph>
<glyph name="fathaRing-ar" format="1">
  <advance width="0"/>
  <unicode hex="08F4"/>
  <outline>
    <contour>
      <point x="47" y="808"/>
      <point x="-34" y="776"/>
      <point x="-66" y="760" type="curve"/>
      <point x="-71" y="756"/>
      <point x="-75" y="736"/>
      <point x="-75" y="727" type="curve"/>
      <point x="-40" y="744"/>
      <point x="42" y="775"/>
      <point x="74" y="784" type="curve"/>
      <point x="80" y="795"/>
      <point x="81" y="806"/>
      <point x="82" y="818" type="curve"/>
    </contour>
    <contour>
      <point x="-43" y="849"/>
      <point x="-62" y="797"/>
      <point x="-62" y="757" type="curve" smooth="yes"/>
      <point x="-62" y="740"/>
      <point x="-51" y="700"/>
      <point x="-1" y="700" type="curve" smooth="yes"/>
      <point x="26" y="700"/>
      <point x="45" y="709"/>
      <point x="54" y="725" type="curve" smooth="yes"/>
      <point x="63" y="738"/>
      <point x="65" y="754"/>
      <point x="65" y="765" type="curve" smooth="yes"/>
      <point x="65" y="801"/>
      <point x="48" y="849"/>
      <point x="-1" y="849" type="curve"/>
    </contour>
    <contour>
      <point x="35" y="806"/>
      <point x="41" y="785"/>
      <point x="41" y="769" type="curve" smooth="yes"/>
      <point x="41" y="750"/>
      <point x="25" y="745"/>
      <point x="-2" y="745" type="curve" smooth="yes"/>
      <point x="-29" y="745"/>
      <point x="-36" y="758"/>
      <point x="-36" y="774" type="curve" smooth="yes"/>
      <point x="-36" y="786"/>
      <point x="-31" y="806"/>
      <point x="-2" y="806" type="curve"/>
    </contour>
    <contour>
      <point x="-1" y="849" type="move" name="top"/>
    </contour>
    <contour>
      <point x="-1" y="683" type="move" name="_top"/>
    </contour>
  </outline>
</glyph>
<glyph name="fathaDotabove-ar" format="1">
  <advance width="0"/>
  <unicode hex="08F5"/>
  <outline>
    <contour>
      <point x="-53" y="717"/>
      <point x="42" y="758"/>
      <point x="78" y="769" type="curve"/>
      <point x="85" y="786"/>
      <point x="87" y="793"/>
      <point x="90" y="809" type="curve"/>
      <point x="55" y="800"/>
      <point x="-45" y="762"/>
      <point x="-80" y="742" type="curve"/>
      <point x="-84" y="731"/>
      <point x="-90" y="714"/>
      <point x="-93" y="700" type="curve"/>
    </contour>
    <contour>
      <point x="-18" y="829"/>
      <point x="-7" y="817"/>
      <point x="0" y="808" type="curve"/>
      <point x="10" y="815"/>
      <point x="24" y="831"/>
      <point x="28" y="836" type="curve"/>
      <point x="23" y="847"/>
      <point x="11" y="860"/>
      <point x="-2" y="867" type="curve"/>
      <point x="-7" y="861"/>
      <point x="-23" y="845"/>
      <point x="-31" y="838" type="curve"/>
    </contour>
    <contour>
      <point x="-2" y="867" type="move" name="top"/>
    </contour>
    <contour>
      <point x="-2" y="680" type="move" name="_top"/>
    </contour>
  </outline>
</glyph>
<glyph name="whiteSquare" format="1">
  <advance width="517"/>
  <unicode hex="25A1"/>
  <outline>
    <contour>
      <point x="467" y="480" type="line"/>
      <point x="50" y="480" type="line"/>
      <point x="50" y="63" type="line"/>
      <point x="467" y="63" type="line"/>
    </contour>
    <contour>
      <point x="125" y="404" type="line"/>
      <point x="392" y="404" type="line"/>
      <point x="392" y="138" type="line"/>
      <point x="125" y="138" type="line"/>
    </contour>
  </outline>
</glyph>
<glyph name="hehDoachashmee-ar.medi" format="1">
  <advance width="511"/>
  <unicode hex="FBAD"/>
  <outline>
    <contour>
      <point x="437" y="139" type="line" smooth="yes"/>
      <point x="416" y="139"/>
      <point x="400" y="140"/>
      <point x="388" y="150" type="curve"/>
      <point x="387" y="190"/>
      <point x="370" y="226"/>
      <point x="350" y="253" type="curve" smooth="yes"/>
      <point x="325" y="289"/>
      <point x="293" y="314"/>
      <point x="253" y="338" type="curve" smooth="yes"/>
      <point x="233" y="350"/>
      <point x="213" y="361"/>
      <point x="192" y="371" type="curve" smooth="yes"/>
      <point x="159" y="387"/>
      <point x="152" y="391"/>
      <point x="129" y="407" type="curve"/>
      <point x="119" y="390"/>
      <point x="108" y="373"/>
      <point x="99" y="356" type="curve" smooth="yes"/>
      <point x="85" y="330"/>
      <point x="81" y="312"/>
      <point x="98" y="301" type="curve" smooth="yes"/>
      <point x="106" y="296" type="line"/>
      <point x="82" y="286"/>
      <point x="62" y="270"/>
      <point x="49" y="251" type="curve" smooth="yes"/>
      <point x="33" y="229"/>
      <point x="25" y="203"/>
      <point x="26" y="176" type="curve"/>
      <point x="26" y="163"/>
      <point x="29" y="151"/>
      <point x="33" y="139" type="curve"/>
      <point x="-10" y="139" type="line" smooth="yes"/>
      <point x="-49" y="139"/>
      <point x="-80" y="106"/>
      <point x="-80" y="68" type="curve" smooth="yes"/>
      <point x="-80" y="38"/>
      <point x="-60" y="0"/>
      <point x="-10" y="0" type="curve" smooth="yes"/>
      <point x="43" y="0" type="line" smooth="yes"/>
      <point x="99" y="0"/>
      <point x="144" y="15"/>
      <point x="171" y="44" type="curve"/>
      <point x="204" y="34"/>
      <point x="262" y="4"/>
      <point x="291" y="-12" type="curve"/>
      <point x="321" y="19" type="line"/>
      <point x="337" y="37"/>
      <point x="342" y="42"/>
      <point x="346" y="47" type="curve"/>
      <point x="349" y="43"/>
      <point x="355" y="33"/>
      <point x="369" y="23" type="curve" smooth="yes"/>
      <point x="386" y="11"/>
      <point x="411" y="0"/>
      <point x="451" y="0" type="curve" smooth="yes"/>
      <point x="511" y="0" type="line"/>
      <point x="511" y="139" type="line"/>
    </contour>
    <contour>
      <point x="194" y="218"/>
      <point x="199" y="201"/>
      <point x="199" y="197" type="curve" smooth="yes"/>
      <point x="199" y="194"/>
      <point x="195" y="180"/>
      <point x="180" y="169" type="curve"/>
      <point x="164" y="160"/>
      <point x="151" y="158"/>
      <point x="147" y="158" type="curve" smooth="yes"/>
      <point x="141" y="158"/>
      <point x="124" y="160"/>
      <point x="101" y="172" type="curve"/>
      <point x="85" y="180"/>
      <point x="78" y="190"/>
      <point x="75" y="195" type="curve"/>
      <point x="77" y="198"/>
      <point x="84" y="210"/>
      <point x="107" y="231" type="curve"/>
      <point x="135" y="254"/>
      <point x="150" y="260"/>
      <point x="158" y="260" type="curve" smooth="yes"/>
      <point x="169" y="260"/>
      <point x="179" y="246"/>
      <point x="184" y="235" type="curve"/>
    </contour>
    <contour>
      <point x="305" y="167"/>
      <point x="313" y="142"/>
      <point x="312" y="114" type="curve"/>
      <point x="287" y="121"/>
      <point x="245" y="132"/>
      <point x="224" y="138" type="curve"/>
      <point x="234" y="154"/>
      <point x="240" y="169"/>
      <point x="243" y="184" type="curve" smooth="yes"/>
      <point x="246" y="202"/>
      <point x="244" y="219"/>
      <point x="240" y="237" type="curve"/>
      <point x="261" y="222"/>
      <point x="278" y="206"/>
      <point x="290" y="189" type="curve" smooth="yes"/>
    </contour>
    <contour>
      <point x="129" y="437" type="move" name="top"/>
    </contour>
    <contour>
      <point x="160" y="-32" type="move" name="bottom"/>
    </contour>
  </outline>
</glyph>
<glyph name="dotbelow-ar" format="1">
  <advance width="0"/>
  <unicode hex="FBB3"/>
  <outline>
    <contour>
      <point x="-13" y="-164"/>
      <point x="-50" y="-202"/>
      <point x="-68" y="-217" type="curve"/>
      <point x="-39" y="-238"/>
      <point x="-15" y="-264"/>
      <point x="2" y="-285" type="curve"/>
      <point x="24" y="-269"/>
      <point x="57" y="-232"/>
      <point x="66" y="-221" type="curve"/>
      <point x="54" y="-197"/>
      <point x="27" y="-168"/>
      <point x="-3" y="-152" type="curve"/>
    </contour>
    <contour>
      <point x="-1" y="-126" type="move" name="_bottom"/>
    </contour>
    <contour>
      <point x="-1" y="-289" type="move" name="bottom"/>
    </contour>
  </outline>
</glyph>
<glyph name="fourdotsbelow-ar" format="1">
  <advance width="0"/>
  <unicode hex="FBBB"/>
  <outline>
    <contour>
      <point x="-98" y="-171"/>
      <point x="-74" y="-198"/>
      <point x="-57" y="-218" type="curve"/>
      <point x="-40" y="-204"/>
      <point x="-14" y="-178"/>
      <point x="0" y="-163" type="curve"/>
      <point x="21" y="-181"/>
      <point x="40" y="-201"/>
      <point x="53" y="-218" type="curve"/>
      <point x="75" y="-201"/>
      <point x="108" y="-166"/>
      <point x="116" y="-154" type="curve"/>
      <point x="107" y="-133"/>
      <point x="85" y="-109"/>
      <point x="59" y="-92" type="curve"/>
      <point x="81" y="-74"/>
      <point x="109" y="-43"/>
      <point x="116" y="-32" type="curve"/>
      <point x="105" y="-8"/>
      <point x="78" y="21"/>
      <point x="47" y="37" type="curve"/>
      <point x="40" y="27"/>
      <point x="16" y="2"/>
      <point x="-3" y="-16" type="curve"/>
      <point x="-17" y="4"/>
      <point x="-39" y="24"/>
      <point x="-63" y="37" type="curve"/>
      <point x="-72" y="25"/>
      <point x="-109" y="-13"/>
      <point x="-127" y="-28" type="curve"/>
      <point x="-102" y="-46"/>
      <point x="-80" y="-69"/>
      <point x="-64" y="-87" type="curve"/>
      <point x="-75" y="-101"/>
      <point x="-110" y="-136"/>
      <point x="-127" y="-150" type="curve"/>
    </contour>
    <contour>
      <point x="-35" y="-77"/>
      <point x="-12" y="-55"/>
      <point x="0" y="-41" type="curve"/>
      <point x="18" y="-56"/>
      <point x="34" y="-72"/>
      <point x="46" y="-87" type="curve"/>
      <point x="38" y="-98"/>
      <point x="15" y="-121"/>
      <point x="-3" y="-138" type="curve"/>
      <point x="-14" y="-121"/>
      <point x="-32" y="-105"/>
      <point x="-51" y="-92" type="curve"/>
    </contour>
    <contour>
      <point x="-6" y="57" type="move" name="_bottom"/>
    </contour>
    <contour>
      <point x="-6" y="-218" type="move" name="bottom"/>
    </contour>
  </outline>
</glyph>
<glyph name="ain_meem-ar" format="1">
  <advance width="618"/>
  <unicode hex="FC2A"/>
  <outline>
    <contour>
      <point x="504" y="368"/>
      <point x="412" y="345"/>
      <point x="378" y="334" type="curve"/>
      <point x="352" y="346"/>
      <point x="316" y="374"/>
      <point x="306" y="412" type="curve"/>
      <point x="320" y="420"/>
      <point x="352" y="436"/>
      <point x="400" y="436" type="curve" smooth="yes"/>
      <point x="426" y="436"/>
      <point x="449" y="431"/>
      <point x="478" y="421" type="curve"/>
      <point x="524" y="463" type="line"/>
      <point x="484" y="523"/>
      <point x="440" y="542"/>
      <point x="396" y="542" type="curve" smooth="yes"/>
      <point x="348" y="542"/>
      <point x="308" y="520"/>
      <point x="276" y="490" type="curve" smooth="yes"/>
      <point x="244" y="460"/>
      <point x="219" y="418"/>
      <point x="219" y="372" type="curve" smooth="yes"/>
      <point x="219" y="341"/>
      <point x="230" y="294"/>
      <point x="272" y="264" type="curve"/>
      <point x="247" y="245"/>
      <point x="223" y="226"/>
      <point x="203" y="205" type="curve" smooth="yes"/>
      <point x="184" y="185"/>
      <point x="170" y="163"/>
      <point x="165" y="139" type="curve"/>
      <point x="134" y="123"/>
      <point x="109" y="103"/>
      <point x="90" y="77" type="curve" smooth="yes"/>
      <point x="63" y="42"/>
      <point x="52" y="-3"/>
      <point x="65" y="-57" type="curve" smooth="yes"/>
      <point x="73" y="-95"/>
      <point x="83" y="-172"/>
      <point x="90" y="-217" type="curve" smooth="yes"/>
      <point x="98" y="-273"/>
      <point x="104" y="-352"/>
      <point x="109" y="-410" type="curve"/>
      <point x="165" y="-388" type="line"/>
      <point x="167" y="-318"/>
      <point x="165" y="-204"/>
      <point x="159" y="-150" type="curve" smooth="yes"/>
      <point x="155" y="-107"/>
      <point x="148" y="-55"/>
      <point x="139" y="10" type="curve"/>
      <point x="156" y="26"/>
      <point x="190" y="36"/>
      <point x="248" y="36" type="curve" smooth="yes"/>
      <point x="287" y="36"/>
      <point x="309" y="30"/>
      <point x="353" y="17" type="curve"/>
      <point x="379" y="53"/>
      <point x="389" y="75"/>
      <point x="409" y="126" type="curve"/>
      <point x="385" y="151"/>
      <point x="330" y="177"/>
      <point x="291" y="187" type="curve"/>
      <point x="364" y="237"/>
      <point x="445" y="255"/>
      <point x="528" y="275" type="curve"/>
      <point x="547" y="310"/>
      <point x="558" y="346"/>
      <point x="568" y="381" type="curve"/>
    </contour>
    <contour>
      <point x="317" y="0" type="move" name="caret_1"/>
    </contour>
    <contour>
      <point x="344" y="-27" type="move" name="bottom_1"/>
    </contour>
    <contour>
      <point x="396" y="572" type="move" name="top_1"/>
    </contour>
    <contour>
      <point x="88" y="353" type="move" name="top_2"/>
    </contour>
    <contour>
      <point x="143" y="-429" type="move" name="bottom_2"/>
    </contour>
  </outline>
</glyph>
<glyph name="heh_alefMaksura-ar" format="1">
  <advance width="933"/>
  <unicode hex="FC53"/>
  <outline>
    <contour>
      <point x="883" y="252"/>
      <point x="865" y="289"/>
      <point x="845" y="317" type="curve" smooth="yes"/>
      <point x="820" y="353"/>
      <point x="788" y="378"/>
      <point x="748" y="402" type="curve" smooth="yes"/>
      <point x="728" y="414"/>
      <point x="708" y="425"/>
      <point x="687" y="435" type="curve" smooth="yes"/>
      <point x="654" y="451"/>
      <point x="647" y="455"/>
      <point x="624" y="471" type="curve"/>
      <point x="614" y="454"/>
      <point x="603" y="437"/>
      <point x="594" y="420" type="curve" smooth="yes"/>
      <point x="580" y="394"/>
      <point x="576" y="376"/>
      <point x="593" y="365" type="curve" smooth="yes"/>
      <point x="601" y="360" type="line"/>
      <point x="577" y="350"/>
      <point x="558" y="334"/>
      <point x="544" y="315" type="curve" smooth="yes"/>
      <point x="525" y="289"/>
      <point x="515" y="257"/>
      <point x="516" y="227" type="curve" smooth="yes"/>
      <point x="517" y="192"/>
      <point x="533" y="158"/>
      <point x="568" y="140" type="curve"/>
      <point x="549" y="127"/>
      <point x="519" y="117"/>
      <point x="500" y="110" type="curve" smooth="yes"/>
      <point x="484" y="104"/>
      <point x="469" y="98"/>
      <point x="460" y="92" type="curve" smooth="yes"/>
      <point x="432" y="73"/>
      <point x="430" y="44"/>
      <point x="423" y="-1" type="curve"/>
      <point x="423" y="-1"/>
      <point x="454" y="-7"/>
      <point x="480" y="-14" type="curve" smooth="yes"/>
      <point x="511" y="-23"/>
      <point x="543" y="-36"/>
      <point x="543" y="-52" type="curve" smooth="yes"/>
      <point x="543" y="-76"/>
      <point x="505" y="-95"/>
      <point x="441" y="-113" type="curve" smooth="yes"/>
      <point x="409" y="-122"/>
      <point x="351" y="-132"/>
      <point x="301" y="-132" type="curve" smooth="yes"/>
      <point x="232" y="-132"/>
      <point x="184" y="-113"/>
      <point x="159" y="-83" type="curve" smooth="yes"/>
      <point x="129" y="-48"/>
      <point x="130" y="13"/>
      <point x="142" y="64" type="curve"/>
      <point x="99" y="79" type="line"/>
      <point x="79" y="32"/>
      <point x="65" y="-15"/>
      <point x="61" y="-62" type="curve" smooth="yes"/>
      <point x="58" y="-96"/>
      <point x="61" y="-132"/>
      <point x="75" y="-166" type="curve" smooth="yes"/>
      <point x="90" y="-203"/>
      <point x="116" y="-232"/>
      <point x="155" y="-253" type="curve" smooth="yes"/>
      <point x="192" y="-273"/>
      <point x="239" y="-284"/>
      <point x="291" y="-284" type="curve" smooth="yes"/>
      <point x="353" y="-284"/>
      <point x="431" y="-268"/>
      <point x="487" y="-239" type="curve" smooth="yes"/>
      <point x="540" y="-212"/>
      <point x="582" y="-171"/>
      <point x="605" y="-128" type="curve" smooth="yes"/>
      <point x="622" y="-96"/>
      <point x="628" y="-66"/>
      <point x="629" y="-43" type="curve"/>
      <point x="629" y="-1"/>
      <point x="612" y="24"/>
      <point x="576" y="43" type="curve"/>
      <point x="601" y="52"/>
      <point x="631" y="74"/>
      <point x="665" y="105" type="curve"/>
      <point x="705" y="93"/>
      <point x="759" y="67"/>
      <point x="786" y="52" type="curve"/>
      <point x="829" y="97"/>
      <point x="835" y="104"/>
      <point x="842" y="112" type="curve" smooth="yes"/>
      <point x="868" y="142"/>
      <point x="883" y="173"/>
      <point x="883" y="211" type="curve" smooth="yes"/>
    </contour>
    <contour>
      <point x="694" y="261"/>
      <point x="690" y="247"/>
      <point x="675" y="236" type="curve"/>
      <point x="659" y="227"/>
      <point x="646" y="225"/>
      <point x="642" y="225" type="curve" smooth="yes"/>
      <point x="636" y="225"/>
      <point x="619" y="227"/>
      <point x="596" y="239" type="curve"/>
      <point x="580" y="247"/>
      <point x="573" y="257"/>
      <point x="570" y="262" type="curve"/>
      <point x="572" y="265"/>
      <point x="579" y="277"/>
      <point x="602" y="298" type="curve"/>
      <point x="630" y="321"/>
      <point x="645" y="327"/>
      <point x="653" y="327" type="curve" smooth="yes"/>
      <point x="664" y="327"/>
      <point x="674" y="313"/>
      <point x="679" y="302" type="curve"/>
      <point x="689" y="285"/>
      <point x="694" y="268"/>
      <point x="694" y="264" type="curve" smooth="yes"/>
    </contour>
    <contour>
      <point x="762" y="194"/>
      <point x="743" y="198"/>
      <point x="718" y="205" type="curve"/>
      <point x="728" y="221"/>
      <point x="734" y="236"/>
      <point x="737" y="251" type="curve" smooth="yes"/>
      <point x="740" y="269"/>
      <point x="738" y="286"/>
      <point x="734" y="304" type="curve"/>
      <point x="756" y="288"/>
      <point x="773" y="273"/>
      <point x="785" y="255" type="curve" smooth="yes"/>
      <point x="800" y="233"/>
      <point x="807" y="208"/>
      <point x="806" y="181" type="curve"/>
    </contour>
    <contour>
      <point x="476" y="0" type="move" name="caret_1"/>
    </contour>
    <contour>
      <point x="775" y="-29" type="move" name="bottom_1"/>
    </contour>
    <contour>
      <point x="624" y="501" type="move" name="top_1"/>
    </contour>
    <contour>
      <point x="287" y="70" type="move" name="top_2"/>
    </contour>
    <contour>
      <point x="310" y="-314" type="move" name="bottom_2"/>
    </contour>
  </outline>
</glyph>
<glyph name="seen_alefMaksura-ar" format="1">
  <advance width="1073"/>
  <unicode hex="FCFB"/>
  <outline>
    <contour>
      <point x="941" y="286"/>
      <point x="925" y="264"/>
      <point x="905" y="234" type="curve"/>
      <point x="954" y="165" type="line"/>
      <point x="942" y="145"/>
      <point x="930" y="135"/>
      <point x="901" y="135" type="curve" smooth="yes"/>
      <point x="888" y="135"/>
      <point x="866" y="137"/>
      <point x="854" y="150" type="curve" smooth="yes"/>
      <point x="842" y="162"/>
      <point x="839" y="184"/>
      <point x="840" y="204" type="curve" smooth="yes"/>
      <point x="841" y="213"/>
      <point x="843" y="230"/>
      <point x="844" y="240" type="curve"/>
      <point x="793" y="221" type="line"/>
      <point x="793" y="217"/>
      <point x="793" y="193"/>
      <point x="785" y="174" type="curve" smooth="yes"/>
      <point x="776" y="153"/>
      <point x="758" y="132"/>
      <point x="709" y="132" type="curve" smooth="yes"/>
      <point x="663" y="132"/>
      <point x="640" y="153"/>
      <point x="621" y="176" type="curve" smooth="yes"/>
      <point x="596" y="209"/>
      <point x="579" y="247"/>
      <point x="525" y="247" type="curve" smooth="yes"/>
      <point x="489" y="247"/>
      <point x="459" y="226"/>
      <point x="428" y="178" type="curve" smooth="yes"/>
      <point x="417" y="161"/>
      <point x="397" y="127"/>
      <point x="385" y="96" type="curve" smooth="yes"/>
      <point x="372" y="63"/>
      <point x="363" y="22"/>
      <point x="376" y="-5" type="curve" smooth="yes"/>
      <point x="386" y="-26"/>
      <point x="411" y="-43"/>
      <point x="450" y="-54" type="curve" smooth="yes"/>
      <point x="471" y="-60"/>
      <point x="504" y="-65"/>
      <point x="524" y="-67" type="curve"/>
      <point x="524" y="-98"/>
      <point x="469" y="-116"/>
      <point x="408" y="-124" type="curve" smooth="yes"/>
      <point x="377" y="-128"/>
      <point x="343" y="-130"/>
      <point x="315" y="-130" type="curve" smooth="yes"/>
      <point x="275" y="-130"/>
      <point x="238" y="-126"/>
      <point x="208" y="-115" type="curve" smooth="yes"/>
      <point x="151" y="-94"/>
      <point x="133" y="-53"/>
      <point x="133" y="-4" type="curve" smooth="yes"/>
      <point x="133" y="16"/>
      <point x="136" y="43"/>
      <point x="142" y="66" type="curve"/>
      <point x="99" y="81" type="line"/>
      <point x="78" y="30"/>
      <point x="60" y="-33"/>
      <point x="60" y="-89" type="curve" smooth="yes"/>
      <point x="60" y="-149"/>
      <point x="80" y="-196"/>
      <point x="117" y="-228" type="curve" smooth="yes"/>
      <point x="157" y="-263"/>
      <point x="218" y="-282"/>
      <point x="294" y="-282" type="curve" smooth="yes"/>
      <point x="403" y="-282"/>
      <point x="469" y="-257"/>
      <point x="530" y="-209" type="curve" smooth="yes"/>
      <point x="557" y="-188"/>
      <point x="577" y="-163"/>
      <point x="591" y="-137" type="curve" smooth="yes"/>
      <point x="607" y="-107"/>
      <point x="617" y="-77"/>
      <point x="617" y="-46" type="curve" smooth="yes"/>
      <point x="617" y="4"/>
      <point x="585" y="21"/>
      <point x="540" y="25" type="curve" smooth="yes"/>
      <point x="516" y="27"/>
      <point x="500" y="28"/>
      <point x="484" y="33" type="curve" smooth="yes"/>
      <point x="465" y="39"/>
      <point x="454" y="51"/>
      <point x="454" y="68" type="curve" smooth="yes"/>
      <point x="454" y="93"/>
      <point x="478" y="120"/>
      <point x="513" y="120" type="curve" smooth="yes"/>
      <point x="571" y="120"/>
      <point x="598" y="91"/>
      <point x="624" y="62" type="curve" smooth="yes"/>
      <point x="649" y="33"/>
      <point x="672" y="4"/>
      <point x="720" y="4" type="curve" smooth="yes"/>
      <point x="778" y="4"/>
      <point x="805" y="41"/>
      <point x="811" y="53" type="curve"/>
      <point x="819" y="38"/>
      <point x="848" y="10"/>
      <point x="896" y="10" type="curve" smooth="yes"/>
      <point x="940" y="10"/>
      <point x="976" y="34"/>
      <point x="999" y="77" type="curve" smooth="yes"/>
      <point x="1019" y="115"/>
      <point x="1023" y="154"/>
      <point x="1023" y="176" type="curve" smooth="yes"/>
      <point x="1023" y="218"/>
      <point x="1008" y="267"/>
      <point x="965" y="312" type="curve"/>
    </contour>
    <contour>
      <point x="537" y="0" type="move" name="caret_1"/>
    </contour>
    <contour>
      <point x="805" y="-29" type="move" name="bottom_1"/>
    </contour>
    <contour>
      <point x="803" y="286" type="move" name="top_1"/>
    </contour>
    <contour>
      <point x="235" y="89" type="move" name="top_2"/>
    </contour>
    <contour>
      <point x="304" y="-312" type="move" name="bottom_2"/>
    </contour>
  </outline>
</glyph>
<glyph name="seen-ar.fina" format="1">
  <advance width="936"/>
  <unicode hex="FEB2"/>
  <outline>
    <contour>
      <point x="893" y="139" type="line" smooth="yes"/>
      <point x="870" y="139"/>
      <point x="853" y="144"/>
      <point x="844" y="154" type="curve" smooth="yes"/>
      <point x="828" y="171"/>
      <point x="833" y="195"/>
      <point x="838" y="240" type="curve"/>
      <point x="787" y="221" type="line"/>
      <point x="785" y="176"/>
      <point x="770" y="135"/>
      <point x="730" y="135" type="curve" smooth="yes"/>
      <point x="688" y="135"/>
      <point x="687" y="183"/>
      <point x="695" y="240" type="curve"/>
      <point x="644" y="221" type="line"/>
      <point x="639" y="171"/>
      <point x="620" y="135"/>
      <point x="576" y="135" type="curve" smooth="yes"/>
      <point x="547" y="135"/>
      <point x="513" y="150"/>
      <point x="481" y="213" type="curve"/>
      <point x="454" y="183"/>
      <point x="428" y="147"/>
      <point x="408" y="109" type="curve"/>
      <point x="456" y="46"/>
      <point x="497" y="-13"/>
      <point x="497" y="-45" type="curve" smooth="yes"/>
      <point x="497" y="-84"/>
      <point x="457" y="-108"/>
      <point x="403" y="-121" type="curve" smooth="yes"/>
      <point x="373" y="-128"/>
      <point x="339" y="-131"/>
      <point x="304" y="-131" type="curve" smooth="yes"/>
      <point x="244" y="-131"/>
      <point x="187" y="-116"/>
      <point x="158" y="-81" type="curve" smooth="yes"/>
      <point x="131" y="-48"/>
      <point x="130" y="1"/>
      <point x="142" y="54" type="curve"/>
      <point x="99" y="69" type="line"/>
      <point x="79" y="28"/>
      <point x="64" y="-25"/>
      <point x="61" y="-68" type="curve" smooth="yes"/>
      <point x="59" y="-99"/>
      <point x="62" y="-134"/>
      <point x="75" y="-166" type="curve" smooth="yes"/>
      <point x="93" y="-209"/>
      <point x="125" y="-239"/>
      <point x="164" y="-258" type="curve" smooth="yes"/>
      <point x="197" y="-274"/>
      <point x="241" y="-284"/>
      <point x="294" y="-284" type="curve" smooth="yes"/>
      <point x="343" y="-284"/>
      <point x="387" y="-276"/>
      <point x="425" y="-261" type="curve" smooth="yes"/>
      <point x="472" y="-243"/>
      <point x="509" y="-213"/>
      <point x="534" y="-174" type="curve" smooth="yes"/>
      <point x="559" y="-136"/>
      <point x="571" y="-88"/>
      <point x="568" y="-32" type="curve" smooth="yes"/>
      <point x="567" y="-17"/>
      <point x="567" y="-1"/>
      <point x="566" y="10" type="curve"/>
      <point x="583" y="2"/>
      <point x="603" y="3"/>
      <point x="614" y="6" type="curve" smooth="yes"/>
      <point x="635" y="12"/>
      <point x="644" y="26"/>
      <point x="655" y="46" type="curve"/>
      <point x="660" y="36"/>
      <point x="676" y="0"/>
      <point x="726" y="0" type="curve" smooth="yes"/>
      <point x="777" y="0"/>
      <point x="795" y="37"/>
      <point x="800" y="47" type="curve"/>
      <point x="807" y="29"/>
      <point x="836" y="0"/>
      <point x="891" y="0" type="curve"/>
      <point x="936" y="0" type="line"/>
      <point x="936" y="139" type="line"/>
    </contour>
    <contour>
      <point x="687" y="-121" type="move" name="center"/>
    </contour>
    <contour>
      <point x="304" y="-314" type="move" name="bottom"/>
    </contour>
    <contour>
      <point x="664" y="270" type="move" name="top"/>
    </contour>
  </outline>
</glyph>
<glyph name="seen-ar.medi" format="1">
  <advance width="563"/>
  <unicode hex="FEB4"/>
  <outline>
    <contour>
      <point x="520" y="139" type="line" smooth="yes"/>
      <point x="496" y="139"/>
      <point x="480" y="144"/>
      <point x="471" y="154" type="curve" smooth="yes"/>
      <point x="456" y="172"/>
      <point x="460" y="195"/>
      <point x="465" y="240" type="curve"/>
      <point x="414" y="221" type="line"/>
      <point x="414" y="201"/>
      <point x="411" y="184"/>
      <point x="406" y="170" type="curve" smooth="yes"/>
      <point x="397" y="148"/>
      <point x="381" y="135"/>
      <point x="356" y="135" type="curve" smooth="yes"/>
      <point x="330" y="135"/>
      <point x="319" y="151"/>
      <point x="317" y="178" type="curve" smooth="yes"/>
      <point x="315" y="195"/>
      <point x="317" y="216"/>
      <point x="322" y="240" type="curve"/>
      <point x="271" y="221" type="line"/>
      <point x="270" y="197"/>
      <point x="264" y="177"/>
      <point x="255" y="163" type="curve" smooth="yes"/>
      <point x="243" y="145"/>
      <point x="225" y="135"/>
      <point x="201" y="135" type="curve" smooth="yes"/>
      <point x="168" y="135"/>
      <point x="155" y="153"/>
      <point x="152" y="180" type="curve" smooth="yes"/>
      <point x="150" y="197"/>
      <point x="152" y="217"/>
      <point x="155" y="240" type="curve"/>
      <point x="104" y="221" type="line"/>
      <point x="101" y="199"/>
      <point x="99" y="187"/>
      <point x="87" y="169" type="curve" smooth="yes"/>
      <point x="76" y="152"/>
      <point x="60" y="139"/>
      <point x="35" y="139" type="curve" smooth="yes"/>
      <point x="-10" y="139" type="line" smooth="yes"/>
      <point x="-48" y="139"/>
      <point x="-80" y="107"/>
      <point x="-80" y="69" type="curve" smooth="yes"/>
      <point x="-80" y="25"/>
      <point x="-43" y="0"/>
      <point x="-10" y="0" type="curve" smooth="yes"/>
      <point x="28" y="0" type="line" smooth="yes"/>
      <point x="87" y="0"/>
      <point x="108" y="36"/>
      <point x="116" y="46" type="curve"/>
      <point x="122" y="37"/>
      <point x="138" y="-2"/>
      <point x="194" y="-2" type="curve" smooth="yes"/>
      <point x="241" y="-2"/>
      <point x="274" y="32"/>
      <point x="281" y="47" type="curve"/>
      <point x="287" y="29"/>
      <point x="304" y="-2"/>
      <point x="348" y="-2" type="curve" smooth="yes"/>
      <point x="402" y="-2"/>
      <point x="422" y="37"/>
      <point x="427" y="48" type="curve"/>
      <point x="443" y="16"/>
      <point x="480" y="0"/>
      <point x="518" y="0" type="curve" smooth="yes"/>
      <point x="563" y="0" type="line"/>
      <point x="563" y="139" type="line"/>
    </contour>
    <contour>
      <point x="292" y="270" type="move" name="top"/>
    </contour>
    <contour>
      <point x="272" y="-29" type="move" name="bottom"/>
    </contour>
  </outline>
</glyph>
<glyph name="sad-ar.init" format="1">
  <advance width="629"/>
  <unicode hex="FEBB"/>
  <outline>
    <contour>
      <point x="579" y="280"/>
      <point x="563" y="308"/>
      <point x="534" y="331" type="curve" smooth="yes"/>
      <point x="509" y="350"/>
      <point x="479" y="362"/>
      <point x="455" y="362" type="curve" smooth="yes"/>
      <point x="390" y="362"/>
      <point x="321" y="310"/>
      <point x="268" y="252" type="curve" smooth="yes"/>
      <point x="223" y="202"/>
      <point x="191" y="155"/>
      <point x="181" y="139" type="curve"/>
      <point x="169" y="140"/>
      <point x="160" y="144"/>
      <point x="154" y="150" type="curve" smooth="yes"/>
      <point x="139" y="168"/>
      <point x="141" y="201"/>
      <point x="149" y="244" type="curve"/>
      <point x="98" y="225" type="line"/>
      <point x="94" y="201"/>
      <point x="85" y="177"/>
      <point x="76" y="164" type="curve" smooth="yes"/>
      <point x="64" y="148"/>
      <point x="50" y="139"/>
      <point x="28" y="139" type="curve" smooth="yes"/>
      <point x="-11" y="139" type="line" smooth="yes"/>
      <point x="-30" y="139"/>
      <point x="-80" y="124"/>
      <point x="-80" y="69" type="curve" smooth="yes"/>
      <point x="-80" y="14"/>
      <point x="-30" y="0"/>
      <point x="-11" y="0" type="curve" smooth="yes"/>
      <point x="27" y="0" type="line" smooth="yes"/>
      <point x="72" y="0"/>
      <point x="105" y="16"/>
      <point x="122" y="45" type="curve"/>
      <point x="127" y="40"/>
      <point x="134" y="35"/>
      <point x="144" y="31" type="curve"/>
      <point x="133" y="-17" type="line"/>
      <point x="192" y="-17" type="line"/>
      <point x="199" y="8" type="line"/>
      <point x="220" y="3"/>
      <point x="246" y="4"/>
      <point x="278" y="4" type="curve" smooth="yes"/>
      <point x="344" y="4"/>
      <point x="419" y="31"/>
      <point x="478" y="76" type="curve" smooth="yes"/>
      <point x="508" y="99"/>
      <point x="533" y="126"/>
      <point x="550" y="154" type="curve" smooth="yes"/>
      <point x="569" y="186"/>
      <point x="579" y="218"/>
      <point x="579" y="251" type="curve"/>
    </contour>
    <contour>
      <point x="477" y="183"/>
      <point x="463" y="170"/>
      <point x="439" y="159" type="curve" smooth="yes"/>
      <point x="410" y="146"/>
      <point x="378" y="139"/>
      <point x="343" y="139" type="curve" smooth="yes"/>
      <point x="254" y="139" type="line"/>
      <point x="265" y="154"/>
      <point x="280" y="174"/>
      <point x="299" y="193" type="curve" smooth="yes"/>
      <point x="327" y="222"/>
      <point x="360" y="249"/>
      <point x="408" y="249" type="curve" smooth="yes"/>
      <point x="433" y="249"/>
      <point x="450" y="240"/>
      <point x="462" y="229" type="curve" smooth="yes"/>
      <point x="475" y="216"/>
      <point x="482" y="199"/>
      <point x="485" y="191" type="curve"/>
    </contour>
    <contour>
      <point x="435" y="392" type="move" name="top"/>
    </contour>
    <contour>
      <point x="310" y="-29" type="move" name="bottom"/>
    </contour>
  </outline>
</glyph>
<glyph name="meem-ar.init" format="1">
  <advance width="431"/>
  <unicode hex="FEE3"/>
  <outline>
    <contour>
      <point x="382" y="112"/>
      <point x="384" y="156"/>
      <point x="376" y="195" type="curve" smooth="yes"/>
      <point x="371" y="222"/>
      <point x="362" y="247"/>
      <point x="347" y="266" type="curve" smooth="yes"/>
      <point x="329" y="290"/>
      <point x="303" y="303"/>
      <point x="274" y="303" type="curve" smooth="yes"/>
      <point x="242" y="303"/>
      <point x="213" y="288"/>
      <point x="189" y="258" type="curve" smooth="yes"/>
      <point x="172" y="238"/>
      <point x="161" y="216"/>
      <point x="155" y="201" type="curve"/>
      <point x="139" y="211" type="line"/>
      <point x="125" y="186"/>
      <point x="122" y="179"/>
      <point x="108" y="161" type="curve" smooth="yes"/>
      <point x="98" y="148"/>
      <point x="80" y="139"/>
      <point x="62" y="139" type="curve" smooth="yes"/>
      <point x="-11" y="139" type="line" smooth="yes"/>
      <point x="-54" y="139"/>
      <point x="-80" y="106"/>
      <point x="-80" y="70" type="curve" smooth="yes"/>
      <point x="-80" y="31"/>
      <point x="-50" y="0"/>
      <point x="-11" y="0" type="curve" smooth="yes"/>
      <point x="21" y="0" type="line" smooth="yes"/>
      <point x="86" y="0"/>
      <point x="134" y="3"/>
      <point x="155" y="60" type="curve"/>
      <point x="213" y="25"/>
      <point x="259" y="14"/>
      <point x="333" y="7" type="curve"/>
      <point x="373" y="80" type="line"/>
    </contour>
    <contour>
      <point x="273" y="213"/>
      <point x="298" y="194"/>
      <point x="314" y="168" type="curve" smooth="yes"/>
      <point x="323" y="153"/>
      <point x="330" y="136"/>
      <point x="333" y="119" type="curve"/>
      <point x="287" y="133"/>
      <point x="244" y="154"/>
      <point x="193" y="179" type="curve"/>
      <point x="193" y="179"/>
      <point x="206" y="213"/>
      <point x="244" y="213" type="curve" smooth="yes"/>
    </contour>
    <contour>
      <point x="274" y="333" type="move" name="top"/>
    </contour>
    <contour>
      <point x="156" y="-10" type="move" name="bottom"/>
    </contour>
  </outline>
</glyph>
<glyph name="waw-ar.fina" format="1">
  <advance width="457"/>
  <unicode hex="FEEE"/>
  <outline>
    <contour>
      <point x="332" y="139" type="line"/>
      <point x="327" y="178"/>
      <point x="318" y="219"/>
      <point x="302" y="251" type="curve" smooth="yes"/>
      <point x="284" y="288"/>
      <point x="257" y="314"/>
      <point x="216" y="314" type="curve" smooth="yes"/>
      <point x="170" y="314"/>
      <point x="138" y="279"/>
      <point x="120" y="234" type="curve" smooth="yes"/>
      <point x="105" y="199"/>
      <point x="99" y="158"/>
      <point x="99" y="122" type="curve" smooth="yes"/>
      <point x="99" y="94"/>
      <point x="105" y="54"/>
      <point x="137" y="27" type="curve" smooth="yes"/>
      <point x="156" y="11"/>
      <point x="184" y="0"/>
      <point x="225" y="0" type="curve" smooth="yes"/>
      <point x="264" y="0" type="line"/>
      <point x="262" y="-15"/>
      <point x="256" y="-31"/>
      <point x="248" y="-46" type="curve" smooth="yes"/>
      <point x="225" y="-91"/>
      <point x="180" y="-133"/>
      <point x="130" y="-161" type="curve" smooth="yes"/>
      <point x="96" y="-180"/>
      <point x="52" y="-204"/>
      <point x="24" y="-219" type="curve" smooth="yes"/>
      <point x="-7" y="-236"/>
      <point x="-20" y="-242"/>
      <point x="-20" y="-242" type="curve"/>
      <point x="10" y="-285" type="line"/>
      <point x="29" y="-278"/>
      <point x="68" y="-274"/>
      <point x="92" y="-274" type="curve" smooth="yes"/>
      <point x="106" y="-274"/>
      <point x="125" y="-277"/>
      <point x="138" y="-277" type="curve" smooth="yes"/>
      <point x="180" y="-277"/>
      <point x="207" y="-269"/>
      <point x="232" y="-252" type="curve" smooth="yes"/>
      <point x="261" y="-232"/>
      <point x="293" y="-195"/>
      <point x="314" y="-133" type="curve" smooth="yes"/>
      <point x="327" y="-98"/>
      <point x="335" y="-54"/>
      <point x="338" y="0" type="curve"/>
      <point x="457" y="0" type="line"/>
      <point x="457" y="139" type="line"/>
    </contour>
    <contour>
      <point x="254" y="181"/>
      <point x="260" y="162"/>
      <point x="262" y="138" type="curve"/>
      <point x="213" y="138" type="line" smooth="yes"/>
      <point x="165" y="138"/>
      <point x="151" y="150"/>
      <point x="151" y="178" type="curve" smooth="yes"/>
      <point x="151" y="193"/>
      <point x="166" y="221"/>
      <point x="200" y="221" type="curve" smooth="yes"/>
      <point x="220" y="221"/>
      <point x="235" y="212"/>
      <point x="246" y="195" type="curve" smooth="yes"/>
    </contour>
    <contour>
      <point x="93" y="-65" type="move" name="center"/>
    </contour>
    <contour>
      <point x="118" y="-307" type="move" name="bottom"/>
    </contour>
    <contour>
      <point x="216" y="344" type="move" name="top"/>
    </contour>
  </outline>
</glyph>
<glyph name="ain_meem_alefMaksura-ar" format="1">
  <advance width="1074"/>
  <outline>
    <contour>
      <point x="960" y="364"/>
      <point x="868" y="341"/>
      <point x="834" y="330" type="curve"/>
      <point x="808" y="342"/>
      <point x="772" y="370"/>
      <point x="762" y="408" type="curve"/>
      <point x="776" y="416"/>
      <point x="808" y="432"/>
      <point x="856" y="432" type="curve" smooth="yes"/>
      <point x="882" y="432"/>
      <point x="905" y="427"/>
      <point x="934" y="417" type="curve"/>
      <point x="980" y="459" type="line"/>
      <point x="940" y="519"/>
      <point x="896" y="538"/>
      <point x="852" y="538" type="curve" smooth="yes"/>
      <point x="804" y="538"/>
      <point x="764" y="516"/>
      <point x="732" y="486" type="curve" smooth="yes"/>
      <point x="700" y="456"/>
      <point x="675" y="414"/>
      <point x="675" y="368" type="curve" smooth="yes"/>
      <point x="675" y="337"/>
      <point x="686" y="297"/>
      <point x="716" y="271" type="curve"/>
      <point x="681" y="256"/>
      <point x="631" y="228"/>
      <point x="594" y="168" type="curve" smooth="yes"/>
      <point x="542" y="84"/>
      <point x="450" y="67"/>
      <point x="392" y="65" type="curve"/>
      <point x="384" y="37"/>
      <point x="379" y="10"/>
      <point x="379" y="-29" type="curve"/>
      <point x="429" y="-33"/>
      <point x="461" y="-37"/>
      <point x="488" y="-44" type="curve" smooth="yes"/>
      <point x="522" y="-53"/>
      <point x="542" y="-65"/>
      <point x="543" y="-77" type="curve"/>
      <point x="543" y="-107"/>
      <point x="483" y="-131"/>
      <point x="418" y="-145" type="curve" smooth="yes"/>
      <point x="376" y="-153"/>
      <point x="332" y="-158"/>
      <point x="299" y="-158" type="curve" smooth="yes"/>
      <point x="229" y="-158"/>
      <point x="184" y="-138"/>
      <point x="159" y="-108" type="curve" smooth="yes"/>
      <point x="133" y="-77"/>
      <point x="128" y="-24"/>
      <point x="142" y="39" type="curve"/>
      <point x="99" y="54" type="line"/>
      <point x="75" y="-5"/>
      <point x="64" y="-54"/>
      <point x="61" y="-93" type="curve" smooth="yes"/>
      <point x="58" y="-129"/>
      <point x="63" y="-162"/>
      <point x="75" y="-191" type="curve" smooth="yes"/>
      <point x="91" y="-229"/>
      <point x="116" y="-257"/>
      <point x="155" y="-278" type="curve" smooth="yes"/>
      <point x="192" y="-298"/>
      <point x="240" y="-309"/>
      <point x="288" y="-309" type="curve" smooth="yes"/>
      <point x="338" y="-309"/>
      <point x="390" y="-301"/>
      <point x="436" y="-284" type="curve" smooth="yes"/>
      <point x="484" y="-267"/>
      <point x="526" y="-241"/>
      <point x="556" y="-207" type="curve" smooth="yes"/>
      <point x="586" y="-174"/>
      <point x="605" y="-132"/>
      <point x="605" y="-82" type="curve" smooth="yes"/>
      <point x="605" y="-35"/>
      <point x="582" y="1"/>
      <point x="537" y="20" type="curve"/>
      <point x="562" y="27"/>
      <point x="581" y="40"/>
      <point x="594" y="51" type="curve"/>
      <point x="646" y="21"/>
      <point x="692" y="-1"/>
      <point x="750" y="-7" type="curve"/>
      <point x="785" y="22"/>
      <point x="807" y="58"/>
      <point x="807" y="101" type="curve" smooth="yes"/>
      <point x="807" y="125"/>
      <point x="800" y="158"/>
      <point x="769" y="187" type="curve"/>
      <point x="828" y="230"/>
      <point x="888" y="248"/>
      <point x="984" y="271" type="curve"/>
      <point x="1003" y="306"/>
      <point x="1014" y="342"/>
      <point x="1024" y="377" type="curve"/>
    </contour>
    <contour>
      <point x="710" y="98"/>
      <point x="678" y="107"/>
      <point x="640" y="133" type="curve"/>
      <point x="651" y="147"/>
      <point x="665" y="157"/>
      <point x="686" y="157" type="curve" smooth="yes"/>
      <point x="736" y="157"/>
      <point x="748" y="102"/>
      <point x="748" y="90" type="curve"/>
    </contour>
    <contour>
      <point x="889" y="4" type="move" name="bottom_1"/>
    </contour>
    <contour>
      <point x="498" y="287" type="move" name="top_2"/>
    </contour>
    <contour>
      <point x="716" y="0" type="move" name="caret_2"/>
    </contour>
    <contour>
      <point x="358" y="0" type="move" name="caret_1"/>
    </contour>
    <contour>
      <point x="308" y="-339" type="move" name="bottom_3"/>
    </contour>
    <contour>
      <point x="852" y="568" type="move" name="top_1"/>
    </contour>
    <contour>
      <point x="656" y="-205" type="move" name="bottom_2"/>
    </contour>
    <contour>
      <point x="250" y="44" type="move" name="top_3"/>
    </contour>
  </outline>
</glyph>
<glyph name="behVbelow-ar.fina" format="1">
  <advance width="924"/>
  <outline>
    <component base="dotlessbeh-ar.fina"/>
    <component base="vbelow-ar" xOffset="408" yOffset="132"/>
    <contour>
      <point x="408" y="-286" type="move" name="bottom"/>
    </contour>
  </outline>
</glyph>
<glyph name="dalVinvertedbelow-ar.fina" format="1">
  <advance width="554"/>
  <outline>
    <component base="dal-ar.fina"/>
    <component base="circumflex.below" xOffset="204" yOffset="143"/>
    <contour>
      <point x="211" y="-280" type="move" name="bottom"/>
    </contour>
  </outline>
</glyph>
<glyph name="dotlessbeh-ar.fina" format="1">
  <advance width="924"/>
  <outline>
    <contour>
      <point x="690" y="158"/>
      <point x="621" y="146"/>
      <point x="562" y="140" type="curve" smooth="yes"/>
      <point x="493" y="133"/>
      <point x="472" y="132"/>
      <point x="416" y="132" type="curve" smooth="yes"/>
      <point x="320" y="132"/>
      <point x="259" y="135"/>
      <point x="209" y="149" type="curve" smooth="yes"/>
      <point x="128" y="173"/>
      <point x="115" y="225"/>
      <point x="111" y="259" type="curve"/>
      <point x="67" y="269" type="line"/>
      <point x="58" y="220"/>
      <point x="52" y="155"/>
      <point x="84" y="98" type="curve" smooth="yes"/>
      <point x="119" y="36"/>
      <point x="183" y="10"/>
      <point x="240" y="0" type="curve" smooth="yes"/>
      <point x="279" y="-7"/>
      <point x="326" y="-10"/>
      <point x="384" y="-10" type="curve" smooth="yes"/>
      <point x="472" y="-10"/>
      <point x="541" y="-3"/>
      <point x="595" y="11" type="curve" smooth="yes"/>
      <point x="647" y="25"/>
      <point x="692" y="51"/>
      <point x="723" y="82" type="curve"/>
      <point x="725" y="77"/>
      <point x="732" y="54"/>
      <point x="755" y="34" type="curve" smooth="yes"/>
      <point x="776" y="16"/>
      <point x="808" y="0"/>
      <point x="859" y="0" type="curve" smooth="yes"/>
      <point x="924" y="0" type="line"/>
      <point x="924" y="139" type="line"/>
      <point x="862" y="139" type="line" smooth="yes"/>
      <point x="824" y="139"/>
      <point x="798" y="154"/>
      <point x="787" y="171" type="curve"/>
      <point x="795" y="180"/>
      <point x="820" y="215"/>
      <point x="820" y="215" type="curve"/>
      <point x="771" y="233" type="line"/>
    </contour>
    <contour>
      <point x="416" y="222" type="move" name="top"/>
    </contour>
    <contour>
      <point x="408" y="-49" type="move" name="bottom"/>
    </contour>
  </outline>
</glyph>
<glyph name="dotlessbeh-ar.medi" format="1">
  <advance width="325"/>
  <outline>
    <contour>
      <point x="129" y="227" type="line"/>
      <point x="129" y="227"/>
      <point x="123" y="139"/>
      <point x="50" y="139" type="curve" smooth="yes"/>
      <point x="-10" y="139" type="line" smooth="yes"/>
      <point x="-34" y="139"/>
      <point x="-80" y="120"/>
      <point x="-80" y="71" type="curve" smooth="yes"/>
      <point x="-80" y="31"/>
      <point x="-49" y="0"/>
      <point x="-10" y="0" type="curve" smooth="yes"/>
      <point x="58" y="0" type="line" smooth="yes"/>
      <point x="91" y="0"/>
      <point x="116" y="11"/>
      <point x="133" y="23" type="curve" smooth="yes"/>
      <point x="149" y="35"/>
      <point x="158" y="48"/>
      <point x="159" y="50" type="curve"/>
      <point x="160" y="48"/>
      <point x="165" y="36"/>
      <point x="183" y="23" type="curve" smooth="yes"/>
      <point x="200" y="11"/>
      <point x="225" y="0"/>
      <point x="265" y="0" type="curve" smooth="yes"/>
      <point x="325" y="0" type="line"/>
      <point x="325" y="139" type="line"/>
      <point x="251" y="139" type="line" smooth="yes"/>
      <point x="222" y="139"/>
      <point x="202" y="146"/>
      <point x="190" y="159" type="curve" smooth="yes"/>
      <point x="167" y="186"/>
      <point x="180" y="246"/>
      <point x="180" y="246" type="curve"/>
    </contour>
    <contour>
      <point x="28" y="262" type="move" name="top"/>
    </contour>
    <contour>
      <point x="10" y="-29" type="move" name="bottom"/>
    </contour>
  </outline>
</glyph>
<glyph name="dotlessbeh_alefMaksura-ar" format="1">
  <advance width="678"/>
  <outline>
    <contour>
      <point x="579" y="222"/>
      <point x="544" y="285"/>
      <point x="468" y="354" type="curve"/>
      <point x="444" y="316"/>
      <point x="432" y="293"/>
      <point x="417" y="245" type="curve"/>
      <point x="459" y="212"/>
      <point x="492" y="181"/>
      <point x="508" y="148" type="curve"/>
      <point x="501" y="135"/>
      <point x="482" y="90"/>
      <point x="413" y="83" type="curve"/>
      <point x="406" y="82"/>
      <point x="401" y="82"/>
      <point x="392" y="82" type="curve"/>
      <point x="385" y="53"/>
      <point x="381" y="30"/>
      <point x="379" y="-1" type="curve"/>
      <point x="420" y="-4"/>
      <point x="458" y="-8"/>
      <point x="488" y="-16" type="curve" smooth="yes"/>
      <point x="522" y="-25"/>
      <point x="542" y="-37"/>
      <point x="543" y="-49" type="curve"/>
      <point x="543" y="-75"/>
      <point x="495" y="-99"/>
      <point x="432" y="-113" type="curve" smooth="yes"/>
      <point x="393" y="-122"/>
      <point x="347" y="-128"/>
      <point x="303" y="-128" type="curve" smooth="yes"/>
      <point x="231" y="-128"/>
      <point x="186" y="-112"/>
      <point x="159" y="-80" type="curve" smooth="yes"/>
      <point x="135" y="-51"/>
      <point x="129" y="-6"/>
      <point x="142" y="67" type="curve"/>
      <point x="99" y="82" type="line"/>
      <point x="84" y="46"/>
      <point x="71" y="11"/>
      <point x="64" y="-43" type="curve" smooth="yes"/>
      <point x="58" y="-87"/>
      <point x="59" y="-125"/>
      <point x="75" y="-163" type="curve" smooth="yes"/>
      <point x="90" y="-199"/>
      <point x="114" y="-227"/>
      <point x="154" y="-249" type="curve" smooth="yes"/>
      <point x="192" y="-270"/>
      <point x="236" y="-281"/>
      <point x="290" y="-281" type="curve" smooth="yes"/>
      <point x="356" y="-281"/>
      <point x="431" y="-265"/>
      <point x="488" y="-235" type="curve" smooth="yes"/>
      <point x="541" y="-207"/>
      <point x="583" y="-169"/>
      <point x="606" y="-126" type="curve" smooth="yes"/>
      <point x="623" y="-94"/>
      <point x="628" y="-63"/>
      <point x="628" y="-42" type="curve" smooth="yes"/>
      <point x="628" y="7"/>
      <point x="601" y="46"/>
      <point x="550" y="59" type="curve"/>
      <point x="562" y="76"/>
      <point x="579" y="114"/>
      <point x="579" y="158" type="curve" smooth="yes"/>
    </contour>
    <contour>
      <point x="344" y="0" type="move" name="caret_1"/>
    </contour>
    <contour>
      <point x="526" y="-315" type="move" name="bottom_1"/>
    </contour>
    <contour>
      <point x="362" y="353" type="move" name="top_1"/>
    </contour>
    <contour>
      <point x="233" y="82" type="move" name="top_2"/>
    </contour>
    <contour>
      <point x="262" y="-311" type="move" name="bottom_2"/>
    </contour>
  </outline>
</glyph>
<glyph name="dotlessbeh_noonghunna-ar" format="1">
  <advance width="846"/>
  <outline>
    <contour>
      <point x="740" y="312" type="line"/>
      <point x="733" y="263"/>
      <point x="700" y="221"/>
      <point x="645" y="221" type="curve" smooth="yes"/>
      <point x="604" y="221"/>
      <point x="557" y="232"/>
      <point x="525" y="254" type="curve" smooth="yes"/>
      <point x="496" y="274"/>
      <point x="481" y="297"/>
      <point x="481" y="297" type="curve"/>
      <point x="455" y="264"/>
      <point x="435" y="234"/>
      <point x="413" y="198" type="curve"/>
      <point x="462" y="134"/>
      <point x="497" y="76"/>
      <point x="497" y="41" type="curve" smooth="yes"/>
      <point x="497" y="18"/>
      <point x="481" y="0"/>
      <point x="450" y="-16" type="curve" smooth="yes"/>
      <point x="427" y="-28"/>
      <point x="382" y="-47"/>
      <point x="305" y="-47" type="curve" smooth="yes"/>
      <point x="266" y="-47"/>
      <point x="235" y="-40"/>
      <point x="214" y="-33" type="curve" smooth="yes"/>
      <point x="193" y="-26"/>
      <point x="171" y="-14"/>
      <point x="157" y="3" type="curve" smooth="yes"/>
      <point x="129" y="37"/>
      <point x="132" y="84"/>
      <point x="142" y="138" type="curve"/>
      <point x="99" y="153" type="line"/>
      <point x="79" y="118"/>
      <point x="64" y="57"/>
      <point x="61" y="16" type="curve" smooth="yes"/>
      <point x="58" y="-22"/>
      <point x="65" y="-57"/>
      <point x="75" y="-82" type="curve" smooth="yes"/>
      <point x="90" y="-120"/>
      <point x="117" y="-149"/>
      <point x="157" y="-170" type="curve" smooth="yes"/>
      <point x="197" y="-191"/>
      <point x="243" y="-200"/>
      <point x="293" y="-200" type="curve" smooth="yes"/>
      <point x="347" y="-200"/>
      <point x="395" y="-191"/>
      <point x="435" y="-173" type="curve" smooth="yes"/>
      <point x="491" y="-149"/>
      <point x="531" y="-108"/>
      <point x="553" y="-53" type="curve" smooth="yes"/>
      <point x="571" y="-8"/>
      <point x="577" y="45"/>
      <point x="569" y="107" type="curve"/>
      <point x="592" y="99"/>
      <point x="607" y="96"/>
      <point x="638" y="94" type="curve" smooth="yes"/>
      <point x="683" y="91"/>
      <point x="725" y="107"/>
      <point x="752" y="141" type="curve" smooth="yes"/>
      <point x="790" y="189"/>
      <point x="805" y="260"/>
      <point x="791" y="331" type="curve"/>
    </contour>
    <contour>
      <point x="428" y="0" type="move" name="caret_1"/>
    </contour>
    <contour>
      <point x="695" y="0" type="move" name="bottom_1"/>
    </contour>
    <contour>
      <point x="613" y="331" type="move" name="top_1"/>
    </contour>
    <contour>
      <point x="300" y="29" type="move" name="top_2"/>
    </contour>
    <contour>
      <point x="303" y="-230" type="move" name="bottom_2"/>
    </contour>
  </outline>
</glyph>
<glyph name="kafswash-ar.medi" format="1">
  <advance width="741"/>
  <outline>
    <contour>
      <point x="633" y="139" type="line"/>
      <point x="628" y="180"/>
      <point x="620" y="209"/>
      <point x="595" y="243" type="curve" smooth="yes"/>
      <point x="557" y="293"/>
      <point x="495" y="319"/>
      <point x="411" y="319" type="curve" smooth="yes"/>
      <point x="341" y="317"/>
      <point x="270" y="316"/>
      <point x="200" y="314" type="curve" smooth="yes"/>
      <point x="175" y="314"/>
      <point x="157" y="316"/>
      <point x="142" y="320" type="curve"/>
      <point x="111" y="327"/>
      <point x="102" y="338"/>
      <point x="101" y="339" type="curve"/>
      <point x="142" y="375"/>
      <point x="189" y="397"/>
      <point x="254" y="417" type="curve"/>
      <point x="266" y="461"/>
      <point x="273" y="497"/>
      <point x="278" y="547" type="curve"/>
      <point x="190" y="517"/>
      <point x="132" y="488"/>
      <point x="76" y="425" type="curve" smooth="yes"/>
      <point x="40" y="384"/>
      <point x="20" y="339"/>
      <point x="20" y="301" type="curve" smooth="yes"/>
      <point x="20" y="277"/>
      <point x="29" y="256"/>
      <point x="46" y="240" type="curve" smooth="yes"/>
      <point x="64" y="222"/>
      <point x="92" y="210"/>
      <point x="128" y="203" type="curve" smooth="yes"/>
      <point x="151" y="198"/>
      <point x="173" y="197"/>
      <point x="185" y="197" type="curve" smooth="yes"/>
      <point x="293" y="197"/>
      <point x="411" y="203"/>
      <point x="441" y="203" type="curve" smooth="yes"/>
      <point x="466" y="203"/>
      <point x="489" y="196"/>
      <point x="510" y="185" type="curve" smooth="yes"/>
      <point x="533" y="173"/>
      <point x="551" y="151"/>
      <point x="556" y="144" type="curve"/>
      <point x="522" y="143"/>
      <point x="490" y="142"/>
      <point x="459" y="141" type="curve" smooth="yes"/>
      <point x="424" y="139"/>
      <point x="387" y="140"/>
      <point x="350" y="139" type="curve" smooth="yes"/>
      <point x="313" y="138"/>
      <point x="263" y="138"/>
      <point x="54" y="140" type="curve" smooth="yes"/>
      <point x="-10" y="139" type="line" smooth="yes"/>
      <point x="-34" y="139"/>
      <point x="-80" y="120"/>
      <point x="-80" y="71" type="curve" smooth="yes"/>
      <point x="-80" y="31"/>
      <point x="-49" y="0"/>
      <point x="-10" y="0" type="curve" smooth="yes"/>
      <point x="110" y="0" type="line" smooth="yes"/>
      <point x="252" y="0"/>
      <point x="313" y="-4"/>
      <point x="505" y="4" type="curve" smooth="yes"/>
      <point x="537" y="6"/>
      <point x="565" y="17"/>
      <point x="589" y="39" type="curve"/>
      <point x="594" y="33"/>
      <point x="600" y="27"/>
      <point x="603" y="25" type="curve" smooth="yes"/>
      <point x="623" y="8"/>
      <point x="648" y="0"/>
      <point x="678" y="0" type="curve" smooth="yes"/>
      <point x="741" y="0" type="line"/>
      <point x="741" y="139" type="line"/>
    </contour>
    <contour>
      <point x="134" y="544" type="move" name="top"/>
    </contour>
    <contour>
      <point x="249" y="-30" type="move" name="bottom"/>
    </contour>
  </outline>
</glyph>
<glyph name="seven-persian.urdu" format="1">
  <advance width="448"/>
  <outline>
    <contour>
      <point x="174" y="112" type="line" smooth="yes"/>
      <point x="137" y="112"/>
      <point x="122" y="125"/>
      <point x="116" y="132" type="curve"/>
      <point x="146" y="203"/>
      <point x="181" y="249"/>
      <point x="218" y="300" type="curve" smooth="yes"/>
      <point x="261" y="359"/>
      <point x="279" y="382"/>
      <point x="316" y="453" type="curve"/>
      <point x="307" y="504"/>
      <point x="297" y="538"/>
      <point x="281" y="580" type="curve"/>
      <point x="246" y="522"/>
      <point x="191" y="437"/>
      <point x="164" y="399" type="curve" smooth="yes"/>
      <point x="148" y="376"/>
      <point x="131" y="351"/>
      <point x="108" y="315" type="curve" smooth="yes"/>
      <point x="81" y="272"/>
      <point x="50" y="209"/>
      <point x="50" y="163" type="curve" smooth="yes"/>
      <point x="50" y="100"/>
      <point x="67" y="54"/>
      <point x="100" y="26" type="curve" smooth="yes"/>
      <point x="128" y="3"/>
      <point x="160" y="0"/>
      <point x="173" y="0" type="curve" smooth="yes"/>
      <point x="354" y="0" type="line"/>
      <point x="382" y="45"/>
      <point x="390" y="63"/>
      <point x="408" y="112" type="curve"/>
    </contour>
  </outline>
</glyph>
<glyph name="three-ar.below" format="1">
  <advance width="0"/>
  <outline>
    <contour>
      <point x="71" y="-215" type="line"/>
      <point x="71" y="-235"/>
      <point x="66" y="-250"/>
      <point x="50" y="-250" type="curve" smooth="yes"/>
      <point x="30" y="-250"/>
      <point x="26" y="-233"/>
      <point x="28" y="-207" type="curve"/>
      <point x="5" y="-215" type="line"/>
      <point x="7" y="-235"/>
      <point x="1" y="-247"/>
      <point x="-15" y="-247" type="curve" smooth="yes"/>
      <point x="-42" y="-247"/>
      <point x="-59" y="-210"/>
      <point x="-64" y="-202" type="curve"/>
      <point x="-79" y="-221"/>
      <point x="-86" y="-232"/>
      <point x="-96" y="-252" type="curve"/>
      <point x="-81" y="-277"/>
      <point x="-71" y="-303"/>
      <point x="-64" y="-332" type="curve" smooth="yes"/>
      <point x="-53" y="-374"/>
      <point x="-49" y="-414"/>
      <point x="-52" y="-460" type="curve"/>
      <point x="-27" y="-460" type="line"/>
      <point x="-20" y="-427"/>
      <point x="-15" y="-399"/>
      <point x="-14" y="-372" type="curve" smooth="yes"/>
      <point x="-13" y="-349"/>
      <point x="-15" y="-329"/>
      <point x="-19" y="-306" type="curve"/>
      <point x="-10" y="-305"/>
      <point x="4" y="-302"/>
      <point x="15" y="-291" type="curve"/>
      <point x="23" y="-297"/>
      <point x="33" y="-299"/>
      <point x="43" y="-299" type="curve" smooth="yes"/>
      <point x="58" y="-298"/>
      <point x="71" y="-293"/>
      <point x="79" y="-282" type="curve" smooth="yes"/>
      <point x="93" y="-265"/>
      <point x="96" y="-238"/>
      <point x="92" y="-207" type="curve"/>
    </contour>
    <contour>
      <point x="-11" y="-184" type="move" name="_bottom"/>
    </contour>
    <contour>
      <point x="-10" y="-457" type="move" name="bottom"/>
    </contour>
  </outline>
</glyph>
<glyph name="twodotshorizontalcenter-ar" format="1">
  <advance width="0"/>
  <outline>
    <contour>
      <point x="43" y="262"/>
      <point x="19" y="237"/>
      <point x="0" y="219" type="curve"/>
      <point x="-14" y="239"/>
      <point x="-36" y="259"/>
      <point x="-60" y="272" type="curve"/>
      <point x="-69" y="260"/>
      <point x="-106" y="222"/>
      <point x="-124" y="207" type="curve"/>
      <point x="-95" y="186"/>
      <point x="-71" y="159"/>
      <point x="-54" y="139" type="curve"/>
      <point x="-37" y="153"/>
      <point x="-11" y="179"/>
      <point x="3" y="194" type="curve"/>
      <point x="24" y="176"/>
      <point x="43" y="155"/>
      <point x="56" y="139" type="curve"/>
      <point x="78" y="155"/>
      <point x="111" y="191"/>
      <point x="119" y="203" type="curve"/>
      <point x="108" y="227"/>
      <point x="81" y="255"/>
      <point x="50" y="272" type="curve"/>
    </contour>
    <contour>
      <point x="-3" y="216" type="move" name="_center"/>
    </contour>
  </outline>
</glyph>
<glyph name="vbelow-ar" format="1">
  <advance width="0"/>
  <outline>
    <contour>
      <point x="75" y="-229"/>
      <point x="69" y="-216"/>
      <point x="60" y="-201" type="curve"/>
      <point x="54" y="-209"/>
      <point x="47" y="-218"/>
      <point x="41" y="-227" type="curve" smooth="yes"/>
      <point x="32" y="-239"/>
      <point x="24" y="-252"/>
      <point x="17" y="-265" type="curve" smooth="yes"/>
      <point x="10" y="-277"/>
      <point x="5" y="-289"/>
      <point x="0" y="-302" type="curve"/>
      <point x="-3" y="-291"/>
      <point x="-9" y="-281"/>
      <point x="-14" y="-269" type="curve" smooth="yes"/>
      <point x="-19" y="-262"/>
      <point x="-24" y="-253"/>
      <point x="-30" y="-244" type="curve" smooth="yes"/>
      <point x="-38" y="-230"/>
      <point x="-49" y="-215"/>
      <point x="-60" y="-201" type="curve"/>
      <point x="-69" y="-215"/>
      <point x="-75" y="-226"/>
      <point x="-79" y="-242" type="curve"/>
      <point x="-53" y="-273"/>
      <point x="-33" y="-304"/>
      <point x="-22" y="-334" type="curve" smooth="yes"/>
      <point x="-16" y="-353"/>
      <point x="-14" y="-365"/>
      <point x="-12" y="-387" type="curve"/>
      <point x="11" y="-387" type="line"/>
      <point x="13" y="-366"/>
      <point x="15" y="-351"/>
      <point x="22" y="-333" type="curve" smooth="yes"/>
      <point x="34" y="-302"/>
      <point x="53" y="-271"/>
      <point x="79" y="-242" type="curve"/>
    </contour>
    <contour>
      <point x="0" y="-181" type="move" name="_bottom"/>
    </contour>
  </outline>
</glyph>
